<svg width="35" height="34" viewBox="0 0 35 34" fill="none" xmlns="http://www.w3.org/2000/svg">
<path d="M20.8778 22.84V26.7778H25.3116C26.3978 26.7778 27.2796 25.8978 27.2778 24.8098C27.2778 23.7218 26.396 22.84 25.308 22.84H20.8778ZM20.8778 22.84V18.7778H24.812C25.9338 18.7778 26.844 19.688 26.844 20.8098C26.844 21.9316 25.9338 22.8418 24.812 22.8418M15.7222 15.2222L11.7222 7.22222L7.72222 15.2222M8.428 13.8107H15.0164M28.4476 33H6.55244C3.76133 33 1.5 30.7387 1.5 27.9476V6.05244C1.5 3.26133 3.76133 1 6.55244 1H28.4476C31.2387 1 33.5 3.26133 33.5 6.05244V27.9476C33.5 30.7387 31.2387 33 28.4476 33Z" stroke="#1A6FEF" stroke-width="1.5" stroke-linecap="round" stroke-linejoin="round"/>
</svg>
