<svg width="31" height="34" viewBox="0 0 31 34" fill="none" xmlns="http://www.w3.org/2000/svg">
<path d="M8.2 4.62295L22.488 12.9326V29.3771M1 17L15.4 25.119L29.8 16.8729M22.6 4.62295L8.2 12.869V29.3771M1.4448 9.0002L15.4 17M15.4 17L29.3536 9.0002M15.4 17V32.8883M29.8 23.349V10.651C29.8 9.47049 29.1664 8.38055 28.1376 7.79109L17.0624 1.44209C16.0336 0.852635 14.7664 0.852635 13.7376 1.44209L2.6624 7.79109C1.6336 8.38055 1 9.47049 1 10.651V23.349C1 24.5295 1.6336 25.6194 2.6624 26.2089L13.7376 32.5579C14.7664 33.1474 16.0336 33.1474 17.0624 32.5579L28.1376 26.2089C29.1664 25.6194 29.8 24.5295 29.8 23.349Z" stroke="white" stroke-width="1.5" stroke-linecap="round" stroke-linejoin="round"/>
</svg>
