<svg width="35" height="32" viewBox="0 0 35 32" fill="none" xmlns="http://www.w3.org/2000/svg">
<path d="M9.42162 20.6165C8.91328 19.4967 8.61289 18.265 8.61289 16.955C8.61289 12.0476 12.5925 8.06792 17.5 8.06792C22.4075 8.06792 26.3871 12.0476 26.3871 16.955C26.3871 18.265 26.0867 19.4967 25.5784 20.6165M30.8058 25.8421C35.1765 19.3137 34.2309 10.2808 27.9584 4.8419C22.052 -0.280632 12.948 -0.280632 7.04165 4.8419C0.769129 10.2808 -0.17646 19.3137 4.19422 25.8421M18.1754 20.9827L25.653 29.7063C26.1934 30.3372 25.6513 31.297 24.8319 31.162L17.5 29.9391L10.1681 31.1602C9.34874 31.297 8.80663 30.3355 9.34697 29.7045L16.8246 20.9809C17.1801 20.5685 17.8199 20.5685 18.1754 20.9827Z" stroke="#1A6FEF" stroke-width="1.5" stroke-linecap="round" stroke-linejoin="round"/>
</svg>
