<svg width="34" height="34" viewBox="0 0 34 34" fill="none" xmlns="http://www.w3.org/2000/svg">
<path d="M27.6667 33V29.4444C27.6667 28.4631 28.4631 27.6667 29.4444 27.6667H33M6.33333 1V4.55556C6.33333 5.53689 5.53689 6.33333 4.55556 6.33333H1M1 27.6667H4.55556C5.53689 27.6667 6.33333 28.4631 6.33333 29.4444V33M33 6.33333H29.4444C28.4631 6.33333 27.6667 5.53689 27.6667 4.55556V1M21.4444 25.8889H12.5556C10.1004 25.8889 8.11111 23.8996 8.11111 21.4444V12.5556C8.11111 10.1004 10.1004 8.11111 12.5556 8.11111H21.4444C23.8996 8.11111 25.8889 10.1004 25.8889 12.5556V21.4444C25.8889 23.8996 23.8996 25.8889 21.4444 25.8889Z" stroke="white" stroke-width="1.5" stroke-linecap="round" stroke-linejoin="round"/>
</svg>
