<svg width="111" height="32" viewBox="0 0 111 32" fill="none" xmlns="http://www.w3.org/2000/svg">
<path d="M0 16.2164H2.21444V19.796L2.0792 20.9615H2.21444C2.41729 20.6174 2.73283 20.3233 3.16107 20.0791C3.5893 19.8349 4.11896 19.7128 4.75005 19.7128C5.27971 19.7128 5.7812 19.8238 6.25452 20.0458C6.7391 20.2567 7.1617 20.5564 7.52232 20.9448C7.89421 21.3222 8.18722 21.7773 8.40134 22.3101C8.61545 22.8429 8.72251 23.4256 8.72251 24.0583C8.72251 24.6909 8.61545 25.2737 8.40134 25.8065C8.18722 26.3392 7.89421 26.7999 7.52232 27.1883C7.1617 27.5657 6.7391 27.8654 6.25452 28.0874C5.7812 28.2983 5.27971 28.4037 4.75005 28.4037C4.11896 28.4037 3.5893 28.2817 3.16107 28.0375C2.73283 27.7933 2.41729 27.4991 2.21444 27.155H2.0792V28.1374H0V16.2164ZM4.29364 26.3892C4.58664 26.3892 4.86275 26.3337 5.12194 26.2227C5.39241 26.1117 5.62906 25.9563 5.83191 25.7565C6.03476 25.5567 6.19817 25.3125 6.32213 25.0239C6.44609 24.7353 6.50808 24.4135 6.50808 24.0583C6.50808 23.7031 6.44609 23.3812 6.32213 23.0926C6.19817 22.804 6.03476 22.5598 5.83191 22.36C5.62906 22.1602 5.39241 22.0049 5.12194 21.8939C4.86275 21.7829 4.58664 21.7274 4.29364 21.7274C4.00064 21.7274 3.7189 21.7829 3.44844 21.8939C3.18924 21.9938 2.95822 22.1436 2.75537 22.3434C2.55252 22.5432 2.38911 22.7874 2.26515 23.076C2.14119 23.3646 2.0792 23.692 2.0792 24.0583C2.0792 24.4246 2.14119 24.752 2.26515 25.0406C2.38911 25.3292 2.55252 25.5734 2.75537 25.7732C2.95822 25.9729 3.18924 26.1283 3.44844 26.2393C3.7189 26.3392 4.00064 26.3892 4.29364 26.3892Z" fill="black" fill-opacity="0.4"/>
<path d="M15.7838 27.0718H15.6486C15.3894 27.4825 15.04 27.8099 14.6005 28.0541C14.161 28.2872 13.6595 28.4037 13.0961 28.4037C12.048 28.4037 11.2648 28.0874 10.7464 27.4547C10.2393 26.8221 9.9857 25.9785 9.9857 24.924V19.9792H12.2001V24.6576C12.2001 25.2459 12.3297 25.6844 12.5889 25.9729C12.8594 26.2504 13.2482 26.3892 13.7553 26.3892C14.0596 26.3892 14.3244 26.3281 14.5498 26.206C14.7865 26.0728 14.9837 25.9008 15.1414 25.6899C15.3105 25.4679 15.4345 25.2126 15.5133 24.924C15.6035 24.6243 15.6486 24.308 15.6486 23.975V19.9792H17.863V28.1374H15.7838V27.0718Z" fill="black" fill-opacity="0.4"/>
<path d="M23.4977 32C22.9117 32 22.3877 31.9223 21.9257 31.7669C21.4749 31.6226 21.0805 31.4284 20.7424 31.1842C20.4043 30.9511 20.1226 30.6903 19.8972 30.4017C19.6718 30.1131 19.5084 29.8245 19.407 29.5359L21.52 28.7034C21.6777 29.1363 21.9369 29.4693 22.2976 29.7024C22.6582 29.9466 23.0582 30.0687 23.4977 30.0687C24.1965 30.0687 24.7487 29.8522 25.1544 29.4194C25.56 28.9976 25.7629 28.4037 25.7629 27.6379V27.0718H25.6277C25.3685 27.427 25.0248 27.71 24.5965 27.9209C24.1795 28.1207 23.6837 28.2206 23.109 28.2206C22.6131 28.2206 22.1285 28.1207 21.6552 27.9209C21.1932 27.7211 20.7818 27.4381 20.4212 27.0718C20.0606 26.6944 19.7676 26.2449 19.5422 25.7232C19.3168 25.2015 19.2041 24.6188 19.2041 23.975C19.2041 23.3313 19.3168 22.7485 19.5422 22.2268C19.7676 21.6941 20.0606 21.2445 20.4212 20.8783C20.7818 20.5009 21.1932 20.2123 21.6552 20.0125C22.1285 19.8127 22.6131 19.7128 23.109 19.7128C23.6837 19.7128 24.1795 19.8182 24.5965 20.0291C25.0248 20.2289 25.3685 20.5064 25.6277 20.8616H25.7629V19.9792H27.8759V27.5546C27.8759 28.2428 27.7689 28.8588 27.5547 29.4027C27.3406 29.9577 27.042 30.4239 26.6588 30.8012C26.2757 31.1897 25.8136 31.4839 25.2727 31.6837C24.743 31.8946 24.1514 32 23.4977 32ZM23.5823 26.256C23.8527 26.256 24.1176 26.206 24.3768 26.1061C24.6472 26.0062 24.8839 25.8619 25.0867 25.6733C25.2896 25.4735 25.453 25.2348 25.577 24.9573C25.7009 24.6687 25.7629 24.3413 25.7629 23.975C25.7629 23.6087 25.7009 23.2813 25.577 22.9927C25.453 22.7041 25.2896 22.4655 25.0867 22.2768C24.8839 22.077 24.6472 21.9272 24.3768 21.8273C24.1176 21.7274 23.8527 21.6774 23.5823 21.6774C23.3118 21.6774 23.047 21.7274 22.7878 21.8273C22.5286 21.9272 22.2976 22.077 22.0947 22.2768C21.8919 22.4766 21.7285 22.7208 21.6045 23.0094C21.4805 23.2869 21.4185 23.6087 21.4185 23.975C21.4185 24.3413 21.4805 24.6687 21.6045 24.9573C21.7285 25.2348 21.8919 25.4735 22.0947 25.6733C22.2976 25.8619 22.5286 26.0062 22.7878 26.1061C23.047 26.206 23.3118 26.256 23.5823 26.256Z" fill="black" fill-opacity="0.4"/>
<path d="M30.9978 18.7971C30.8062 18.7971 30.6202 18.7638 30.4399 18.6972C30.2709 18.6195 30.1187 18.5196 29.9835 18.3975C29.8595 18.2643 29.7581 18.1145 29.6792 17.948C29.6116 17.7815 29.5778 17.5983 29.5778 17.3985C29.5778 17.1988 29.6116 17.0156 29.6792 16.8491C29.7581 16.6826 29.8595 16.5383 29.9835 16.4162C30.1187 16.283 30.2709 16.1831 30.4399 16.1165C30.6202 16.0388 30.8062 16 30.9978 16C31.3922 16 31.7303 16.1387 32.012 16.4162C32.2937 16.6826 32.4346 17.0101 32.4346 17.3985C32.4346 17.787 32.2937 18.12 32.012 18.3975C31.7303 18.6639 31.3922 18.7971 30.9978 18.7971ZM29.899 28.1374V19.9792H32.1134V28.1374H29.899Z" fill="black" fill-opacity="0.4"/>
<path d="M36.2176 21.0447H36.3528C36.612 20.6341 36.9613 20.3122 37.4008 20.0791C37.8403 19.8349 38.3418 19.7128 38.9053 19.7128C39.4237 19.7128 39.8801 19.796 40.2745 19.9625C40.669 20.129 40.9901 20.3677 41.2381 20.6785C41.4973 20.9781 41.6888 21.3444 41.8128 21.7773C41.948 22.1991 42.0157 22.6708 42.0157 23.1925V28.1374H39.8012V23.4589C39.8012 22.8706 39.666 22.4377 39.3955 22.1602C39.1363 21.8717 38.7532 21.7274 38.246 21.7274C37.9418 21.7274 37.6713 21.794 37.4347 21.9272C37.2093 22.0493 37.012 22.2213 36.843 22.4433C36.6852 22.6542 36.5613 22.9095 36.4711 23.2092C36.3922 23.4977 36.3528 23.8085 36.3528 24.1415V28.1374H34.1383V19.9792H36.2176V21.0447Z" fill="black" fill-opacity="0.4"/>
<path d="M45.1804 28.2373C44.7747 28.2373 44.4254 28.0985 44.1324 27.821C43.8506 27.5324 43.7098 27.1883 43.7098 26.7888C43.7098 26.3892 43.8506 26.0506 44.1324 25.7732C44.4254 25.4957 44.7747 25.3569 45.1804 25.3569C45.5861 25.3569 45.9298 25.4957 46.2116 25.7732C46.4933 26.0506 46.6342 26.3892 46.6342 26.7888C46.6342 27.1883 46.4933 27.5324 46.2116 27.821C45.9298 28.0985 45.5861 28.2373 45.1804 28.2373Z" fill="black" fill-opacity="0.4"/>
<path d="M51.6641 28.4037C51.1231 28.4037 50.6385 28.3371 50.2103 28.204C49.7933 28.0708 49.4271 27.8987 49.1115 27.6878C48.8073 27.4658 48.5481 27.2161 48.334 26.9386C48.1198 26.65 47.9564 26.3614 47.8437 26.0728L49.8215 25.2404C50.0131 25.6622 50.2667 25.9785 50.5822 26.1894C50.909 26.3892 51.2696 26.4891 51.6641 26.4891C52.0698 26.4891 52.3909 26.4169 52.6276 26.2726C52.8643 26.1283 52.9826 25.9563 52.9826 25.7565C52.9826 25.5345 52.8812 25.3569 52.6783 25.2237C52.4867 25.0794 52.1487 24.9518 51.6641 24.8408L50.4977 24.5911C50.2385 24.5356 49.968 24.4468 49.6863 24.3247C49.4158 24.2026 49.1679 24.0472 48.9425 23.8585C48.7171 23.6698 48.5312 23.4422 48.3847 23.1759C48.2382 22.9095 48.1649 22.5987 48.1649 22.2435C48.1649 21.8439 48.2494 21.4887 48.4185 21.1779C48.5988 20.8672 48.8411 20.6063 49.1454 20.3954C49.4496 20.1734 49.8046 20.0069 50.2103 19.8959C50.6273 19.7738 51.0724 19.7128 51.5457 19.7128C52.3346 19.7128 53.0389 19.8682 53.6587 20.179C54.2786 20.4787 54.735 20.9615 55.028 21.6275L53.1178 22.3933C52.96 22.0715 52.729 21.8384 52.4247 21.6941C52.1205 21.5498 51.8162 21.4776 51.5119 21.4776C51.1964 21.4776 50.9203 21.5442 50.6836 21.6774C50.447 21.7995 50.3286 21.9605 50.3286 22.1602C50.3286 22.3489 50.4244 22.4988 50.616 22.6098C50.8189 22.7208 51.0893 22.8207 51.4274 22.9095L52.6952 23.2092C53.5404 23.4089 54.1659 23.7308 54.5716 24.1748C54.9885 24.6077 55.197 25.1238 55.197 25.7232C55.197 26.0784 55.1125 26.4169 54.9435 26.7388C54.7744 27.0607 54.5321 27.3493 54.2166 27.6046C53.9123 27.8488 53.5404 28.043 53.1009 28.1873C52.6727 28.3316 52.1937 28.4037 51.6641 28.4037Z" fill="black" fill-opacity="0.4"/>
<path d="M60.5604 19.7128C61.2027 19.7128 61.7887 19.8238 62.3184 20.0458C62.8593 20.2567 63.3214 20.5564 63.7045 20.9448C64.099 21.3222 64.4032 21.7773 64.6173 22.3101C64.8427 22.8429 64.9554 23.4256 64.9554 24.0583C64.9554 24.6909 64.8427 25.2737 64.6173 25.8065C64.4032 26.3392 64.099 26.7999 63.7045 27.1883C63.3214 27.5657 62.8593 27.8654 62.3184 28.0874C61.7887 28.2983 61.2027 28.4037 60.5604 28.4037C59.918 28.4037 59.3264 28.2983 58.7854 28.0874C58.2558 27.8654 57.7937 27.5657 57.3993 27.1883C57.0161 26.7999 56.7119 26.3392 56.4865 25.8065C56.2724 25.2737 56.1653 24.6909 56.1653 24.0583C56.1653 23.4256 56.2724 22.8429 56.4865 22.3101C56.7119 21.7773 57.0161 21.3222 57.3993 20.9448C57.7937 20.5564 58.2558 20.2567 58.7854 20.0458C59.3264 19.8238 59.918 19.7128 60.5604 19.7128ZM60.5604 26.3892C60.8421 26.3892 61.1126 26.3392 61.3718 26.2393C61.6422 26.1283 61.8789 25.9729 62.0817 25.7732C62.2846 25.5734 62.4424 25.3292 62.5551 25.0406C62.679 24.752 62.741 24.4246 62.741 24.0583C62.741 23.692 62.679 23.3646 62.5551 23.076C62.4424 22.7874 62.2846 22.5432 62.0817 22.3434C61.8789 22.1436 61.6422 21.9938 61.3718 21.8939C61.1126 21.7829 60.8421 21.7274 60.5604 21.7274C60.2674 21.7274 59.9913 21.7829 59.7321 21.8939C59.4729 21.9938 59.2419 22.1436 59.039 22.3434C58.8362 22.5432 58.6728 22.7874 58.5488 23.076C58.4361 23.3646 58.3797 23.692 58.3797 24.0583C58.3797 24.4246 58.4361 24.752 58.5488 25.0406C58.6728 25.3292 58.8362 25.5734 59.039 25.7732C59.2419 25.9729 59.4729 26.1283 59.7321 26.2393C59.9913 26.3392 60.2674 26.3892 60.5604 26.3892Z" fill="black" fill-opacity="0.4"/>
<path d="M72.419 21.8439H69.2917V28.1374H67.0773V21.8439H65.5897V19.9792H67.0773V19.18C67.0773 18.6805 67.1505 18.2421 67.2971 17.8647C67.4548 17.4762 67.6746 17.1544 67.9563 16.8991C68.238 16.6327 68.5705 16.4329 68.9537 16.2997C69.3368 16.1554 69.7594 16.0832 70.2215 16.0832C70.4468 16.0832 70.6272 16.0943 70.7624 16.1165C70.8976 16.1387 71.0272 16.172 71.1512 16.2164L71.0159 18.2643C70.9371 18.231 70.8469 18.2033 70.7455 18.1811C70.6441 18.1589 70.5145 18.1478 70.3567 18.1478C70.0299 18.1478 69.7707 18.2532 69.5791 18.4641C69.3875 18.675 69.2917 18.9636 69.2917 19.3299V19.9792H72.419V17.4818H74.6334V19.9792H76.6619V21.8439H74.6334V25.0073C74.6334 25.196 74.6503 25.3736 74.6841 25.5401C74.7292 25.6955 74.8081 25.8286 74.9208 25.9396C75.0786 26.1172 75.304 26.206 75.597 26.206C75.7885 26.206 75.9407 26.1894 76.0534 26.1561C76.1661 26.1117 76.2731 26.0562 76.3745 25.9896L77 27.9043C76.7408 28.0264 76.4591 28.1152 76.1548 28.1707C75.8618 28.2373 75.535 28.2705 75.1744 28.2705C74.7574 28.2705 74.3799 28.2095 74.0418 28.0874C73.715 27.9542 73.4389 27.7766 73.2135 27.5546C72.6838 27.0552 72.419 26.3448 72.419 25.4235V21.8439Z" fill="black" fill-opacity="0.4"/>
<path fill-rule="evenodd" clip-rule="evenodd" d="M86 16C84.3431 16 83 17.3431 83 19V29C83 30.6569 84.3431 32 86 32H108C109.657 32 111 30.6569 111 29V19C111 17.3431 109.657 16 108 16H86ZM86 17C84.8954 17 84 17.8954 84 19V29C84 30.1046 84.8954 31 86 31H108C109.105 31 110 30.1046 110 29V19C110 17.8954 109.105 17 108 17H86Z" fill="#999999"/>
<path d="M87.5493 26.7486V25.7713C87.8723 25.4538 88.1707 25.1582 88.4444 24.8844C88.5594 24.7694 88.6771 24.6517 88.7975 24.5313C88.918 24.4108 89.0302 24.2986 89.1342 24.1946C89.2383 24.0906 89.3313 23.9975 89.4135 23.9154C89.4956 23.8278 89.5585 23.7593 89.6023 23.7101C89.6899 23.606 89.7666 23.513 89.8323 23.4308C89.9035 23.3487 89.9582 23.2693 89.9965 23.1927C90.0403 23.1106 90.0732 23.0312 90.0951 22.9545C90.117 22.8724 90.1279 22.7848 90.1279 22.6917C90.1279 22.5111 90.0568 22.355 89.9144 22.2236C89.7721 22.0868 89.5777 22.0183 89.3313 22.0183C89.085 22.0183 88.8934 22.0895 88.7565 22.2318C88.6196 22.3687 88.5265 22.5247 88.4773 22.6999L87.5 22.2975C87.5438 22.1497 87.615 21.9992 87.7135 21.8459C87.8121 21.6871 87.938 21.5475 88.0913 21.427C88.2446 21.3011 88.4253 21.1998 88.6333 21.1232C88.8468 21.0411 89.085 21 89.3478 21C89.6325 21 89.8898 21.0438 90.1197 21.1314C90.3497 21.2135 90.544 21.3285 90.7028 21.4763C90.8616 21.6241 90.9847 21.7993 91.0723 22.0019C91.1599 22.199 91.2037 22.4125 91.2037 22.6425C91.2037 22.9928 91.1161 23.3159 90.9409 23.6115C90.7712 23.9017 90.5632 24.1727 90.3168 24.4245L89.6106 25.1308C89.4244 25.3169 89.2136 25.525 88.9782 25.7549L89.0111 25.8042H91.2859V26.7486H87.5493Z" fill="#999999"/>
<path d="M94.3648 26.88C94.0035 26.88 93.6777 26.8061 93.3876 26.6583C93.0974 26.505 92.8483 26.2969 92.6403 26.0341C92.4377 25.7713 92.2816 25.462 92.1722 25.1061C92.0627 24.7448 92.0079 24.3561 92.0079 23.94C92.0079 23.5239 92.0627 23.1379 92.1722 22.7821C92.2816 22.4207 92.4377 22.1087 92.6403 21.8459C92.8483 21.5831 93.0974 21.3778 93.3876 21.2299C93.6777 21.0766 94.0035 21 94.3648 21C94.7262 21 95.0519 21.0766 95.3421 21.2299C95.6323 21.3778 95.8786 21.5831 96.0812 21.8459C96.2892 22.1087 96.448 22.4207 96.5575 22.7821C96.667 23.1379 96.7218 23.5239 96.7218 23.94C96.7218 24.3561 96.667 24.7448 96.5575 25.1061C96.448 25.462 96.2892 25.7713 96.0812 26.0341C95.8786 26.2969 95.6323 26.505 95.3421 26.6583C95.0519 26.8061 94.7262 26.88 94.3648 26.88ZM94.3648 25.8617C94.5619 25.8617 94.7399 25.8151 94.8986 25.7221C95.0574 25.6235 95.1915 25.4894 95.301 25.3197C95.416 25.1445 95.5009 24.9392 95.5556 24.7037C95.6158 24.4683 95.646 24.2137 95.646 23.94C95.646 23.6608 95.6158 23.4062 95.5556 23.1763C95.5009 22.9408 95.416 22.7383 95.301 22.5685C95.1915 22.3934 95.0574 22.2592 94.8986 22.1661C94.7399 22.0676 94.5619 22.0183 94.3648 22.0183C94.1623 22.0183 93.9816 22.0676 93.8228 22.1661C93.6641 22.2592 93.5299 22.3934 93.4204 22.5685C93.3109 22.7383 93.2261 22.9408 93.1658 23.1763C93.1111 23.4062 93.0837 23.6608 93.0837 23.94C93.0837 24.2137 93.1111 24.4683 93.1658 24.7037C93.2261 24.9392 93.3109 25.1445 93.4204 25.3197C93.5299 25.4894 93.6641 25.6235 93.8228 25.7221C93.9816 25.8151 94.1623 25.8617 94.3648 25.8617Z" fill="#999999"/>
<path d="M97.3816 26.7486V25.7713C97.7046 25.4538 98.003 25.1582 98.2767 24.8844C98.3917 24.7694 98.5094 24.6517 98.6298 24.5313C98.7503 24.4108 98.8625 24.2986 98.9665 24.1946C99.0706 24.0906 99.1636 23.9975 99.2458 23.9154C99.3279 23.8278 99.3908 23.7593 99.4346 23.7101C99.5222 23.606 99.5989 23.513 99.6646 23.4308C99.7358 23.3487 99.7905 23.2693 99.8288 23.1927C99.8726 23.1106 99.9055 23.0312 99.9274 22.9545C99.9493 22.8724 99.9602 22.7848 99.9602 22.6917C99.9602 22.5111 99.8891 22.355 99.7467 22.2236C99.6044 22.0868 99.41 22.0183 99.1636 22.0183C98.9173 22.0183 98.7256 22.0895 98.5888 22.2318C98.4519 22.3687 98.3588 22.5247 98.3096 22.6999L97.3323 22.2975C97.3761 22.1497 97.4473 21.9992 97.5458 21.8459C97.6444 21.6871 97.7703 21.5475 97.9236 21.427C98.0769 21.3011 98.2575 21.1998 98.4656 21.1232C98.6791 21.0411 98.9173 21 99.1801 21C99.4648 21 99.7221 21.0438 99.952 21.1314C100.182 21.2135 100.376 21.3285 100.535 21.4763C100.694 21.6241 100.817 21.7993 100.905 22.0019C100.992 22.199 101.036 22.4125 101.036 22.6425C101.036 22.9928 100.948 23.3159 100.773 23.6115C100.604 23.9017 100.395 24.1727 100.149 24.4245L99.4429 25.1308C99.2567 25.3169 99.0459 25.525 98.8105 25.7549L98.8434 25.8042H101.118V26.7486H97.3816Z" fill="#999999"/>
<path d="M104.197 26.88C103.836 26.88 103.51 26.8061 103.22 26.6583C102.93 26.505 102.681 26.2969 102.473 26.0341C102.27 25.7713 102.114 25.462 102.004 25.1061C101.895 24.7448 101.84 24.3561 101.84 23.94C101.84 23.5239 101.895 23.1379 102.004 22.7821C102.114 22.4207 102.27 22.1087 102.473 21.8459C102.681 21.5831 102.93 21.3778 103.22 21.2299C103.51 21.0766 103.836 21 104.197 21C104.558 21 104.884 21.0766 105.174 21.2299C105.465 21.3778 105.711 21.5831 105.913 21.8459C106.122 22.1087 106.28 22.4207 106.39 22.7821C106.499 23.1379 106.554 23.5239 106.554 23.94C106.554 24.3561 106.499 24.7448 106.39 25.1061C106.28 25.462 106.122 25.7713 105.913 26.0341C105.711 26.2969 105.465 26.505 105.174 26.6583C104.884 26.8061 104.558 26.88 104.197 26.88ZM104.197 25.8617C104.394 25.8617 104.572 25.8151 104.731 25.7221C104.89 25.6235 105.024 25.4894 105.133 25.3197C105.248 25.1445 105.333 24.9392 105.388 24.7037C105.448 24.4683 105.478 24.2137 105.478 23.94C105.478 23.6608 105.448 23.4062 105.388 23.1763C105.333 22.9408 105.248 22.7383 105.133 22.5685C105.024 22.3934 104.89 22.2592 104.731 22.1661C104.572 22.0676 104.394 22.0183 104.197 22.0183C103.995 22.0183 103.814 22.0676 103.655 22.1661C103.496 22.2592 103.362 22.3934 103.253 22.5685C103.143 22.7383 103.058 22.9408 102.998 23.1763C102.943 23.4062 102.916 23.6608 102.916 23.94C102.916 24.2137 102.943 24.4683 102.998 24.7037C103.058 24.9392 103.143 25.1445 103.253 25.3197C103.362 25.4894 103.496 25.6235 103.655 25.7221C103.814 25.8151 103.995 25.8617 104.197 25.8617Z" fill="#999999"/>
<path d="M3.68 9.09375C4.92609 9.09375 5.76203 8.47266 6.01984 7.35938H5.30891C5.10578 8.04688 4.51203 8.44531 3.68391 8.44531C2.57063 8.44531 1.86359 7.5625 1.86359 6.17969C1.86359 4.80859 2.57844 3.91797 3.68 3.91797C4.48469 3.91797 5.12922 4.40234 5.30891 5.14062H6.01984C5.84016 4.01562 4.90656 3.26953 3.68 3.26953C2.13703 3.26953 1.14094 4.41016 1.14094 6.17969C1.14094 7.96484 2.12531 9.09375 3.68 9.09375ZM13.8741 9H14.6123L12.5342 3.36328H11.8389L9.76078 9H10.4991L11.0655 7.38672H13.3077L13.8741 9ZM12.1748 4.21875H12.1983L13.1006 6.78906H11.2725L12.1748 4.21875ZM19.6502 1.77734C19.6502 2.46484 20.1462 2.94531 20.8611 2.94531C21.5759 2.94531 22.072 2.46484 22.072 1.77734H21.5916C21.5916 2.21484 21.2869 2.55859 20.8611 2.55859C20.4353 2.55859 20.1306 2.21484 20.1306 1.77734H19.6502ZM22.4197 9H23.115V3.36328H22.4197L19.3728 7.86328H19.3103V3.36328H18.615V9H19.3103L22.3572 4.51562H22.4197V9ZM29.6958 9V3.99609H31.4731V3.36328H27.2153V3.99609H28.9927V9H29.6958ZM42.8144 9.09375C44.0605 9.09375 44.8964 8.47266 45.1542 7.35938H44.4433C44.2402 8.04688 43.6464 8.44531 42.8183 8.44531C41.705 8.44531 40.998 7.5625 40.998 6.17969C40.998 4.80859 41.7128 3.91797 42.8144 3.91797C43.6191 3.91797 44.2636 4.40234 44.4433 5.14062H45.1542C44.9745 4.01562 44.0409 3.26953 42.8144 3.26953C41.2714 3.26953 40.2753 4.41016 40.2753 6.17969C40.2753 7.96484 41.2597 9.09375 42.8144 9.09375ZM49.528 9H53.653V10.1133H54.3053V8.36719H53.6022V3.36328H50.1139L49.8991 6.91016C49.8561 7.64844 49.7038 8.14844 49.2936 8.36719H48.8756V10.1133H49.528V9ZM50.5592 6.92578L50.7428 3.99609H52.8991V8.36719H50.1647V8.33594C50.442 8 50.5202 7.57031 50.5592 6.92578ZM61.8978 8.36719H59.1087V6.42969H61.7533V5.80469H59.1087V3.99609H61.8978V3.36328H58.4056V9H61.8978V8.36719ZM70.4473 9V3.36328H67.045L66.8419 6.86328C66.7794 7.95312 66.5411 8.39062 66.0059 8.39062C65.9434 8.39062 65.838 8.37891 65.795 8.36719V8.99609C65.8653 9.01953 65.9669 9.03516 66.0684 9.03516C66.9786 9.03516 67.4122 8.39062 67.5059 6.89062L67.6856 3.99609H69.7442V9H70.4473ZM78.5672 9H79.3055L77.2273 3.36328H76.532L74.4539 9H75.1922L75.7586 7.38672H78.0008L78.5672 9ZM76.868 4.21875H76.8914L77.7937 6.78906H75.9656L76.868 4.21875ZM87.5698 9V3.36328H84.1675L83.9644 6.86328C83.9019 7.95312 83.6636 8.39062 83.1284 8.39062C83.0659 8.39062 82.9605 8.37891 82.9175 8.36719V8.99609C82.9878 9.01953 83.0894 9.03516 83.1909 9.03516C84.1011 9.03516 84.5347 8.39062 84.6284 6.89062L84.8081 3.99609H86.8667V9H87.5698ZM95.8303 9H96.5256V3.36328H95.8303L92.7834 7.86328H92.7209V3.36328H92.0256V9H92.7209L95.7678 4.51562H95.8303V9ZM108.027 9C109.226 9 109.937 8.41016 109.937 7.41797C109.937 6.66797 109.445 6.12891 108.679 6.03125V6C109.222 5.90234 109.652 5.35547 109.652 4.76953C109.652 3.92578 109 3.36328 108.035 3.36328H105.898V9H108.027ZM106.601 3.98438H107.875C108.558 3.98438 108.941 4.29297 108.941 4.85156C108.941 5.46094 108.488 5.79297 107.656 5.79297H106.601V3.98438ZM106.601 8.37891V6.39844H107.855C108.754 6.39844 109.215 6.73047 109.215 7.38281C109.215 8.03516 108.769 8.37891 107.922 8.37891H106.601Z" fill="#AFAFAF"/>
</svg>
