<svg width="185" height="45" viewBox="0 0 185 45" fill="none" xmlns="http://www.w3.org/2000/svg">
<path d="M53 25.0924V18.2081H58.1593C58.1593 18.7711 58.2889 19.2311 58.5481 19.5879C58.8073 19.9414 59.118 20.2181 59.4802 20.4177C59.8391 20.6207 60.218 20.7582 60.6168 20.8302C61.0122 20.9022 61.3579 20.9382 61.6536 20.9382C61.8962 20.9382 62.1554 20.9202 62.4312 20.8842C62.7104 20.8482 62.9646 20.7795 63.1939 20.678C63.4265 20.5798 63.621 20.4439 63.7771 20.2704C63.9333 20.0969 64.0114 19.8645 64.0114 19.5732C64.0114 19.2262 63.7489 18.9397 63.2238 18.7138C62.6954 18.4847 62.0391 18.2605 61.2548 18.0411C60.4672 17.8218 59.6115 17.5714 58.6877 17.2898C57.7638 17.0083 56.9081 16.622 56.1205 16.131C55.3362 15.6367 54.6799 15.0114 54.1515 14.2552C53.6231 13.499 53.3589 12.5382 53.3589 11.3728C53.3589 10.3711 53.5766 9.49705 54.0119 8.75067C54.4473 8.00429 54.9939 7.39377 55.6519 6.9191C56.3066 6.4477 57.0178 6.09252 57.7854 5.85355C58.5531 5.61785 59.2792 5.5 59.9638 5.5C60.5354 5.5 61.1086 5.5491 61.6835 5.64731C62.2584 5.74879 62.8034 5.9092 63.3185 6.12853C63.837 6.34786 64.3039 6.6343 64.7193 6.98785C65.138 7.34467 65.4853 7.77678 65.7611 8.28419L66.0402 5.99104H70.8107V12.8508H65.791C65.791 12.3402 65.698 11.8884 65.5119 11.4956C65.3258 11.106 65.0715 10.7738 64.7492 10.4988C64.4268 10.2271 64.048 10.0225 63.6126 9.88497C63.1773 9.74748 62.7187 9.67874 62.2368 9.67874C62.0341 9.67874 61.8214 9.71147 61.5988 9.77694C61.3795 9.83914 61.1718 9.92917 60.9757 10.047C60.7829 10.1681 60.6251 10.3187 60.5021 10.4988C60.3825 10.6821 60.3227 10.8916 60.3227 11.1273C60.3227 11.602 60.5952 11.9948 61.1402 12.3058C61.6885 12.6135 62.3698 12.9049 63.184 13.1798C63.9948 13.4516 64.8721 13.7462 65.8159 14.0637C66.7597 14.3845 67.6387 14.7823 68.4529 15.2569C69.2671 15.7283 69.9467 16.3192 70.4917 17.0296C71.0367 17.74 71.3092 18.6336 71.3092 19.7107C71.3092 20.7844 71.0832 21.6863 70.6312 22.4163C70.176 23.143 69.5927 23.7388 68.8816 24.2037C68.1704 24.6685 67.3795 25.0008 66.5088 25.2005C65.6415 25.4002 64.7907 25.5 63.9566 25.5C63.2554 25.5 62.609 25.428 62.0175 25.2839C61.426 25.1366 60.8893 24.9451 60.4074 24.7094C59.9256 24.4737 59.4952 24.2053 59.1164 23.9041C58.7375 23.603 58.4185 23.2969 58.1593 22.9859L57.8552 25.0924H53ZM94.4187 25.0924H83.2926V21.5128H85.9296L85.3464 19.6566H79.6587L79.0755 21.5128H81.2389V25.0924H72.4208V21.5128H74.305L78.0486 9.51669H76.9121V5.99104H87.5646L92.4747 21.5128H94.4187V25.0924ZM80.6856 16.3765H84.3195L82.4901 10.4742L80.6856 16.3765ZM95.5253 5.99104H104.513C106.125 5.99104 107.429 6.14981 108.426 6.46735C109.426 6.78816 110.204 7.217 110.759 7.75387C111.314 8.29073 111.688 8.90944 111.88 9.60999C112.073 10.3138 112.17 11.0569 112.17 11.8393C112.17 12.7494 111.977 13.5416 111.591 14.2159C111.203 14.8903 110.674 15.4501 110.006 15.8953C109.342 16.3438 108.571 16.6809 107.693 16.9068C106.813 17.136 105.874 17.2506 104.877 17.2506H102.768V21.4833H104.458V25.0924H95.5253V21.4833H97.0806V9.57071H95.5253V5.99104ZM102.768 9.54125V14.2994H104.014C104.829 14.2994 105.485 14.103 105.983 13.7102C106.485 13.3173 106.736 12.7575 106.736 12.0308C106.736 11.2091 106.509 10.5888 106.053 10.1698C105.601 9.75075 104.968 9.54125 104.154 9.54125H102.768ZM135 25.0924H123.879V21.5128H126.516L125.933 19.6566H120.245L119.662 21.5128H121.825V25.0924H113.002V21.5128H114.891L118.635 9.51669H117.498V5.99104H128.151L133.061 21.5128H135V25.0924ZM121.272 16.3765H124.906L123.071 10.4742L121.272 16.3765Z" fill="#AFAFAF"/>
<path d="M138.002 10.6741H136.5V14.2717H138.002V19.1961C138.022 20.0806 138.069 20.8823 138.142 21.6011C138.215 22.32 138.39 22.9279 138.666 23.4248C138.946 23.9217 139.377 24.3093 139.959 24.5876C140.545 24.8625 141.355 25 142.39 25C142.556 25 142.784 24.9867 143.073 24.9602C143.36 24.9304 143.669 24.8973 144.002 24.8609C144.335 24.8244 144.659 24.7747 144.975 24.7118C145.288 24.6455 145.547 24.566 145.754 24.4733V20.9353C145.494 21.0446 145.183 21.1506 144.82 21.2533C144.461 21.356 144.188 21.4073 144.002 21.4073C143.596 21.4073 143.341 21.2632 143.238 20.975C143.135 20.6901 143.083 20.3638 143.083 19.9961C143.083 19.847 143.088 19.7079 143.098 19.5787C143.108 19.4495 143.113 19.322 143.113 19.1961V14.2717H145.754V10.6741H143.113V6.5L138.002 8.12987V10.6741Z" fill="#AFAFAF"/>
<path d="M161.641 19.524V24.5031H165.11L165.364 22.8186C165.697 23.3519 166.238 23.8207 166.987 24.2248C167.735 24.6323 168.61 24.836 169.612 24.836C170.277 24.836 170.926 24.7433 171.559 24.5577C172.187 24.3722 172.738 24.1006 173.211 23.7428C173.683 23.3817 174.063 22.9444 174.349 22.431C174.635 21.9142 174.778 21.3328 174.778 20.6868C174.778 19.8388 174.583 19.1431 174.194 18.5998C173.805 18.0565 173.319 17.6093 172.736 17.2581C172.154 16.907 171.52 16.6254 170.835 16.4134C170.149 16.2014 169.515 16.0076 168.933 15.832C168.348 15.6564 167.86 15.4775 167.471 15.2953C167.085 15.1098 166.892 14.8614 166.892 14.55C166.892 14.1988 166.998 13.9454 167.211 13.7897C167.424 13.6307 167.679 13.5512 167.975 13.5512C168.324 13.5512 168.667 13.6075 169.003 13.7201C169.336 13.8294 169.635 13.9802 169.901 14.1723C170.171 14.3678 170.389 14.5897 170.555 14.8382C170.722 15.0866 170.805 15.3583 170.805 15.6531H174.419V10.6741H171L170.78 12.5027C170.484 11.913 169.956 11.4062 169.198 10.9821C168.436 10.5581 167.584 10.3461 166.642 10.3461C166.14 10.3461 165.607 10.4239 165.045 10.5796C164.479 10.7353 163.95 10.9755 163.458 11.3002C162.969 11.6215 162.561 12.0356 162.235 12.5424C161.912 13.0493 161.751 13.6539 161.751 14.3562C161.751 15.2572 161.94 15.9993 162.32 16.5823C162.699 17.1621 163.182 17.6308 163.767 17.9886C164.35 18.3497 164.973 18.6313 165.639 18.8333C166.308 19.0354 166.933 19.211 167.516 19.3601C168.098 19.5058 168.579 19.6582 168.958 19.8172C169.337 19.9729 169.527 20.18 169.527 20.4384C169.527 20.8259 169.394 21.0794 169.128 21.1986C168.858 21.3179 168.584 21.3775 168.304 21.3775C168.101 21.3775 167.833 21.3494 167.501 21.293C167.168 21.24 166.843 21.144 166.527 21.0048C166.215 20.8657 165.942 20.6769 165.709 20.4384C165.479 20.1998 165.364 19.8951 165.364 19.524H161.641Z" fill="#AFAFAF"/>
<path d="M177.249 10.6741H175.751V14.2717H177.249V19.1961C177.269 20.0806 177.315 20.8823 177.388 21.6011C177.462 22.32 177.638 22.9279 177.917 23.4248C178.194 23.9217 178.625 24.3093 179.21 24.5876C179.792 24.8625 180.603 25 181.641 25C181.807 25 182.034 24.9867 182.32 24.9602C182.606 24.9304 182.915 24.8973 183.248 24.8609C183.584 24.8244 183.909 24.7747 184.221 24.7118C184.537 24.6455 184.797 24.566 185 24.4733V20.9353C184.74 21.0446 184.431 21.1506 184.072 21.2533C183.709 21.356 183.434 21.4073 183.248 21.4073C182.842 21.4073 182.588 21.2632 182.484 20.975C182.385 20.6901 182.335 20.3638 182.335 19.9961C182.335 19.847 182.34 19.7079 182.35 19.5787C182.356 19.4495 182.36 19.322 182.36 19.1961V14.2717H185V10.6741H182.36V6.5L177.249 8.12987V10.6741Z" fill="#AFAFAF"/>
<path fill-rule="evenodd" clip-rule="evenodd" d="M160.807 22.595C159.769 23.4795 158.676 24.1022 157.528 24.4633C156.38 24.8211 155.084 25 153.64 25C152.771 25 151.901 24.8576 151.03 24.5727C150.158 24.2878 149.376 23.8455 148.684 23.2459C147.988 22.6463 147.418 21.8711 146.972 20.9204C146.529 19.9729 146.308 18.835 146.308 17.5066C146.308 16.3836 146.502 15.3748 146.892 14.4804C147.281 13.586 147.809 12.8257 148.474 12.1996C149.14 11.5702 149.926 11.0948 150.835 10.7734C151.743 10.4521 152.725 10.2914 153.78 10.2914C154.928 10.2914 155.941 10.4571 156.819 10.7883C157.701 11.1196 158.438 11.5801 159.031 12.1698C159.623 12.7594 160.067 13.4551 160.363 14.2568C160.659 15.0585 160.807 15.9297 160.807 16.8705C160.807 17.2382 160.779 17.6026 160.723 17.9637C160.666 18.3215 160.583 18.6578 160.473 18.9725H151.723C151.76 19.158 151.82 19.3799 151.903 19.6383C151.986 19.8934 152.131 20.1419 152.337 20.3837C152.54 20.6222 152.816 20.8243 153.166 20.9899C153.519 21.1556 153.991 21.2384 154.583 21.2384C154.826 21.2384 155.091 21.2301 155.377 21.2135C155.663 21.1937 155.973 21.1373 156.305 21.0446C156.638 20.9551 156.991 20.8226 157.363 20.6471C157.733 20.4715 158.102 20.2263 158.471 19.9116L160.807 22.595ZM152.906 14.2717C153.172 14.1061 153.519 14.0232 153.944 14.0232C154.39 14.0232 154.748 14.0878 155.018 14.217C155.284 14.3462 155.487 14.5168 155.626 14.7288C155.766 14.9409 155.863 15.1794 155.916 15.4444C155.973 15.7127 156.001 15.9761 156.001 16.2345H151.808C151.825 16.0689 151.866 15.8568 151.933 15.5984C151.996 15.34 152.108 15.0966 152.267 14.868C152.424 14.6361 152.637 14.4373 152.906 14.2717Z" fill="#AFAFAF"/>
<path d="M53.8283 34.1646L53 34.259L53.1098 35.0441V38.4528H53.9132L53.8283 37.8118V36.6391H54.2824L55.6796 38.4528H56.6127L54.9511 36.3112L55.5349 35.3472C55.7644 34.9596 56.0139 34.8354 56.2584 34.8354C56.3383 34.8354 56.448 34.8453 56.5079 34.8702L56.4331 34.2391C56.3632 34.2143 56.2335 34.1894 56.1237 34.1894C55.6796 34.1894 55.2854 34.3882 54.9012 35.0342L54.2924 36.0578H53.8283V34.1646ZM57.6805 35.3472C57.6805 35.3472 58.1097 34.7112 58.8981 34.7112C59.2474 34.7112 59.5418 34.9398 59.5418 35.6205V35.9286C58.1247 35.9286 57.1317 36.5596 57.1317 37.5087C57.1317 38.1398 57.6556 38.5621 58.2394 38.5621C58.7684 38.5621 59.3671 38.2143 59.6017 37.8665C59.6067 38.2391 59.8462 38.5621 59.8462 38.5621L60.6446 38.4528C60.6446 38.4528 60.2603 38.0006 60.2603 37.4888V35.2279C60.2603 34.4279 59.6416 34.1398 58.9729 34.1398C57.8452 34.1398 57.2963 34.7957 57.2963 34.7957L57.6805 35.3472ZM58.5538 37.9509C58.0997 37.9509 57.9051 37.6528 57.9051 37.3795C57.9051 36.5099 59.3172 36.4851 59.5418 36.4752V37.4193C59.3671 37.618 58.933 37.9509 58.5538 37.9509ZM65.0008 34.1646L64.1724 34.259L64.2822 35.0441V36.2168C64.2822 36.2168 63.7882 36.4304 63.2293 36.4304C62.7353 36.4304 62.391 36.2267 62.391 35.5957V34.1646L61.5627 34.259L61.6725 35.0441V35.5957C61.6725 36.6888 62.2214 37.0863 63.0248 37.0863C63.7433 37.0863 64.2822 36.8578 64.2822 36.8578V38.4528H65.0856L65.0008 37.8317V34.1646ZM68.1195 34.1298C66.8071 34.1298 66.2283 35.2279 66.2283 36.4304C66.2283 37.4888 66.867 38.5621 67.9897 38.5621C69.0526 38.5621 69.6614 37.9758 69.6614 37.9758L69.5416 37.3298C69.5416 37.3298 68.9228 37.9062 68.1943 37.9062C67.366 37.9062 67.0067 37.1211 66.9868 36.3559H69.3769L69.5765 36.1323C69.5566 35.6056 69.4568 34.1298 68.1195 34.1298ZM68.0147 34.6863C68.6085 34.6863 68.7682 35.3671 68.7931 35.8093H67.0317C67.1514 35.1981 67.4359 34.6863 68.0147 34.6863ZM73.793 34.7261C73.4786 34.3435 73.0146 34.1298 72.4008 34.1298C71.0885 34.1298 70.4198 35.2279 70.4198 36.4304C70.4198 37.4888 71.0635 38.5621 72.1863 38.5621C73.2491 38.5621 73.793 37.9758 73.793 37.9758L73.6733 37.3298C73.6733 37.3298 73.1194 37.9062 72.3908 37.9062C71.5426 37.9062 71.1733 37.0814 71.1733 36.2963C71.1733 35.4963 71.6024 34.7261 72.3809 34.7261C72.7252 34.7261 73.0695 34.905 73.3439 35.2975L73.793 34.7261ZM74.1972 34.259V34.8553H75.5744V38.4528H76.3828L76.293 37.8118V34.8553H77.6752V34.259H74.1972ZM79.267 34.7708L79.8757 34.7509C80.5444 34.736 80.8138 34.9149 80.8138 35.3174C80.8138 35.5857 80.6542 35.8292 80.5095 35.9733C80.4645 35.9634 80.26 35.9485 80.0604 35.9485H79.267V34.7708ZM79.267 36.4851H79.9705C80.6641 36.4851 81.0035 36.7037 81.0035 37.2006C81.0035 37.5584 80.7989 37.8913 80.0703 37.8913H79.267V36.4851ZM78.4636 34.259L78.5484 34.8801V38.4528H79.9955C81.3128 38.4528 81.732 37.8714 81.732 37.146C81.732 36.5944 81.3827 36.2615 80.9436 36.0925C81.2031 35.8888 81.4775 35.6404 81.4775 35.223C81.4775 34.5571 80.9086 34.1745 79.9506 34.2093L78.4636 34.259ZM84.4016 34.1298C83.0942 34.1298 82.5104 35.2279 82.5104 36.4304C82.5104 37.4888 83.1541 38.5621 84.2768 38.5621C85.3347 38.5621 85.9435 37.9758 85.9435 37.9758L85.8237 37.3298C85.8237 37.3298 85.21 37.9062 84.4814 37.9062C83.6481 37.9062 83.2888 37.1211 83.2739 36.3559H85.664L85.8587 36.1323C85.8437 35.6056 85.7389 34.1298 84.4016 34.1298ZM84.3018 34.6863C84.8906 34.6863 85.0553 35.3671 85.0802 35.8093H83.3138C83.4335 35.1981 83.718 34.6863 84.3018 34.6863ZM90.5093 34.1646L89.6759 34.259L89.7907 35.0441V36.023H87.8197V34.1646L86.9914 34.259L87.1011 35.0441V38.4528H87.9045L87.8197 37.8118V36.6043H89.7907V38.4528H90.5941L90.5093 37.8317V34.1646ZM95.5142 34.1646L94.6858 34.259L94.7956 35.0441V36.023H92.8296V34.1646L91.9963 34.259L92.111 35.0441V38.4528H92.9144L92.8296 37.8118V36.6043H94.7956V38.4528H95.604L95.5142 37.8317V34.1646ZM96.7217 36.4255C96.7217 36.5596 96.7666 38.5621 98.5281 38.5621C99.8504 38.5621 100.619 37.4888 100.619 36.2615C100.619 34.8106 99.8504 34.1298 98.8225 34.1298C97.5201 34.1298 96.7217 35.1037 96.7217 36.4255ZM97.5101 36.346C97.5101 35.4515 97.9492 34.7012 98.6678 34.7012C99.3863 34.7012 99.8304 35.4515 99.8304 36.346C99.8304 37.2404 99.3863 37.9907 98.6678 37.9907C97.9492 37.9907 97.5101 37.2404 97.5101 36.346ZM103.368 34.1298C102.056 34.1298 101.477 35.2279 101.477 36.4304C101.477 37.4888 102.116 38.5621 103.239 38.5621C104.301 38.5621 104.91 37.9758 104.91 37.9758L104.79 37.3298C104.79 37.3298 104.172 37.9062 103.443 37.9062C102.615 37.9062 102.256 37.1211 102.236 36.3559H104.626L104.825 36.1323C104.805 35.6056 104.706 34.1298 103.368 34.1298ZM103.264 34.6863C103.857 34.6863 104.017 35.3671 104.042 35.8093H102.28C102.4 35.1981 102.685 34.6863 103.264 34.6863ZM107.984 36.4255C107.984 36.5596 108.024 38.5621 109.79 38.5621C111.108 38.5621 111.876 37.4888 111.876 36.2615C111.876 34.8106 111.108 34.1298 110.08 34.1298C108.777 34.1298 107.984 35.1037 107.984 36.4255ZM108.772 36.346C108.772 35.4515 109.207 34.7012 109.925 34.7012C110.644 34.7012 111.093 35.4515 111.093 36.346C111.093 37.2404 110.644 37.9907 109.925 37.9907C109.207 37.9907 108.772 37.2404 108.772 36.346ZM114.626 35.1634C115.294 35.1634 115.738 35.7845 115.738 36.5795C115.738 37.4143 115.279 37.9907 114.626 37.9907C113.897 37.9907 113.463 37.3696 113.463 36.6043C113.463 35.7696 113.927 35.1634 114.626 35.1634ZM116.312 33.295L116.427 32.5C116.337 32.5447 116.118 32.5894 115.998 32.6043C113.358 32.9522 112.719 33.5087 112.719 36.3211V36.6193C112.719 37.8217 113.488 38.5621 114.491 38.5621C115.758 38.5621 116.527 37.7025 116.527 36.4901C116.527 35.3323 115.758 34.5919 114.78 34.5919C114.137 34.5919 113.692 34.8901 113.403 35.3224C113.533 34.0006 113.897 33.618 116.312 33.295ZM117.759 40.5H118.563L118.478 39.859V38.5124C118.717 38.5373 118.957 38.5621 119.146 38.5621C120.379 38.5621 121.237 37.4888 121.237 36.2615C121.237 34.9 120.519 34.1497 119.695 34.1497C118.892 34.1497 118.478 34.6665 118.478 34.6665V34.1646L117.649 34.259L117.759 35.0441V40.5ZM118.478 37.9509V35.3075C118.478 35.3075 118.872 34.7509 119.446 34.7509C120.01 34.7509 120.439 35.377 120.439 36.336C120.439 37.2354 119.92 38.0106 119.286 38.0106C118.952 38.0106 118.463 37.9509 118.478 37.9509ZM122.649 35.3472C122.649 35.3472 123.078 34.7112 123.867 34.7112C124.216 34.7112 124.506 34.9398 124.506 35.6205V35.9286C123.093 35.9286 122.1 36.5596 122.1 37.5087C122.1 38.1398 122.624 38.5621 123.203 38.5621C123.737 38.5621 124.336 38.2143 124.565 37.8665C124.575 38.2391 124.815 38.5621 124.815 38.5621L125.613 38.4528C125.613 38.4528 125.224 38.0006 125.224 37.4888V35.2279C125.224 34.4279 124.61 34.1398 123.942 34.1398C122.814 34.1398 122.265 34.7957 122.265 34.7957L122.649 35.3472ZM123.523 37.9509C123.069 37.9509 122.874 37.6528 122.874 37.3795C122.874 36.5099 124.286 36.4851 124.506 36.4752V37.4193C124.336 37.618 123.897 37.9509 123.523 37.9509ZM127.724 34.7112C128.233 34.7112 128.532 34.9596 128.532 35.3174C128.532 35.6056 128.343 35.8441 128.163 35.9882C128.118 35.9783 127.949 35.9634 127.804 35.9634H127.135V36.5497H127.709C128.283 36.5497 128.617 36.7634 128.617 37.2056C128.617 37.5335 128.393 37.9261 127.684 37.9261C126.941 37.9261 126.347 37.3795 126.347 37.3795L126.227 38.0255C126.227 38.0255 126.821 38.5621 127.684 38.5621C128.857 38.5621 129.346 37.9758 129.346 37.2006C129.346 36.6988 129.106 36.336 128.642 36.1323C128.962 35.9037 129.191 35.5857 129.191 35.213C129.191 34.5124 128.642 34.1298 127.724 34.1298C127.031 34.1298 126.581 34.3534 126.237 34.6913L126.681 35.213C126.941 34.9248 127.315 34.7112 127.724 34.7112ZM130.149 36.4255C130.149 36.5596 130.194 38.5621 131.956 38.5621C133.273 38.5621 134.046 37.4888 134.046 36.2615C134.046 34.8106 133.273 34.1298 132.245 34.1298C130.948 34.1298 130.149 35.1037 130.149 36.4255ZM130.938 36.346C130.938 35.4515 131.372 34.7012 132.095 34.7012C132.814 34.7012 133.258 35.4515 133.258 36.346C133.258 37.2404 132.814 37.9907 132.095 37.9907C131.372 37.9907 130.938 37.2404 130.938 36.346ZM135.972 34.7708L136.581 34.7509C137.245 34.736 137.519 34.9149 137.519 35.3174C137.519 35.5857 137.36 35.8292 137.215 35.9733C137.17 35.9634 136.965 35.9485 136.766 35.9485H135.972V34.7708ZM135.972 36.4851H136.671C137.365 36.4851 137.709 36.7037 137.709 37.2006C137.709 37.5584 137.504 37.8913 136.776 37.8913H135.972V36.4851ZM135.164 34.259L135.254 34.8801V38.4528H136.701C138.018 38.4528 138.437 37.8714 138.437 37.146C138.437 36.5944 138.088 36.2615 137.649 36.0925C137.909 35.8888 138.178 35.6404 138.178 35.223C138.178 34.5571 137.614 34.1745 136.656 34.2093L135.164 34.259ZM139.745 35.3472C139.745 35.3472 140.174 34.7112 140.962 34.7112C141.312 34.7112 141.606 34.9398 141.606 35.6205V35.9286C140.194 35.9286 139.201 36.5596 139.201 37.5087C139.201 38.1398 139.72 38.5621 140.304 38.5621C140.833 38.5621 141.431 38.2143 141.666 37.8665C141.676 38.2391 141.915 38.5621 141.915 38.5621L142.709 38.4528C142.709 38.4528 142.325 38.0006 142.325 37.4888V35.2279C142.325 34.4279 141.706 34.1398 141.042 34.1398C139.91 34.1398 139.361 34.7957 139.361 34.7957L139.745 35.3472ZM140.618 37.9509C140.169 37.9509 139.969 37.6528 139.969 37.3795C139.969 36.5099 141.382 36.4851 141.606 36.4752V37.4193C141.431 37.618 140.997 37.9509 140.618 37.9509ZM147.335 34.1646L146.501 34.259L146.616 35.0441V36.023H144.645V34.1646L143.812 34.259L143.926 35.0441V38.4528H144.73L144.645 37.8118V36.6043H146.616V38.4528H147.419L147.335 37.8317V34.1646ZM149.655 34.1646L148.822 34.259L148.936 35.0441V38.4528H149.61L151.406 35.7845L151.621 35.3671V38.4528H152.429L152.339 37.8317V34.259H151.666L149.869 36.9273L149.655 37.3447V34.1646ZM155.458 34.1298C154.146 34.1298 153.567 35.2279 153.567 36.4304C153.567 37.4888 154.206 38.5621 155.328 38.5621C156.391 38.5621 157 37.9758 157 37.9758L156.88 37.3298C156.88 37.3298 156.261 37.9062 155.533 37.9062C154.705 37.9062 154.345 37.1211 154.33 36.3559H156.716L156.915 36.1323C156.895 35.6056 156.795 34.1298 155.458 34.1298ZM155.353 34.6863C155.947 34.6863 156.107 35.3671 156.137 35.8093H154.37C154.49 35.1981 154.774 34.6863 155.353 34.6863Z" fill="#AFAFAF"/>
<path fill-rule="evenodd" clip-rule="evenodd" d="M44.947 14.1214C44.898 12.2752 44.1492 10.7481 42.1807 9.86383C41.3829 9.50661 40.5621 9.31421 39.6923 9.33125C38.9665 9.34728 38.2376 9.34879 37.5113 9.31672C37.1364 9.30069 36.9275 9.48907 36.7545 9.80771C36.3501 10.5502 35.9382 11.2872 35.5253 12.0247C35.4698 12.1239 35.3973 12.2126 35.3219 12.2962C35.2059 12.423 35.1344 12.4165 35.0354 12.2381C34.573 11.3924 34.0697 10.5733 33.6263 9.71853C33.4868 9.44598 33.3413 9.32524 33.0694 9.33075C32.0262 9.34778 30.9604 9.22203 29.9412 9.40239C27.8142 9.77665 25.8612 11.0142 25.5323 14.0383C25.4913 14.418 25.4108 14.4752 25.1234 14.2682C24.476 13.8038 23.8252 13.3434 23.2043 12.8403C22.633 12.3759 22.0171 12.3954 21.4063 12.6099C21.1593 12.6976 21.0044 12.7091 20.8039 12.5533C20.595 12.3914 20.3595 12.2702 20.1466 12.1139C18.6769 11.0312 17.2098 9.94449 15.7421 8.8593C14.6399 8.04415 13.5382 7.2305 12.4385 6.41084C12.119 6.17387 11.9896 6.17787 11.7806 6.45994C11.5802 6.73249 11.6037 6.8823 11.9346 7.15084C12.287 7.43642 12.6494 7.70947 13.0143 7.97801C14.6849 9.20199 16.358 10.424 18.0306 11.6469C18.7039 12.1379 19.3748 12.6339 20.0541 13.1149C20.345 13.3198 20.4915 13.5302 20.4085 13.9541C20.2365 14.8344 20.5565 15.5143 21.2523 16.0133C22.8899 17.1911 24.5205 18.377 26.1471 19.5735C26.8844 20.1161 28.0631 20.0579 28.564 19.4542C28.9059 19.0414 29.0249 18.5955 29.0259 18.0789C29.0289 17.2122 29.0154 16.3439 29.0344 15.4772C29.0369 15.3013 29.1184 15.0032 29.2164 14.9772C29.4543 14.911 29.7262 14.9521 29.9782 14.9917C30.0297 14.9997 30.0811 15.1891 30.0906 15.2988C30.1091 15.5398 30.1036 15.7833 30.1036 16.0253C30.1021 25.8912 30.0981 31.9159 30.1011 41.7824C30.1011 42.4011 30.0571 43.0239 30.3436 43.6151C30.848 44.6512 31.6618 45.062 32.6835 44.9588C33.5973 44.8656 34.2446 44.3285 34.614 43.3816C34.782 42.9512 34.8075 42.5289 34.8075 42.088C34.8085 35.7938 34.8085 33.3398 34.8085 27.0446C34.8085 26.8632 34.8125 26.6813 34.81 26.5005C34.8075 26.2079 34.856 25.9839 35.2029 25.9904C35.5863 25.999 35.7008 26.0936 35.7248 26.5135C35.7328 26.6548 35.7263 26.7966 35.7263 26.9384C35.7263 33.2937 35.7293 35.8073 35.7218 42.1626C35.7208 43.1446 35.9637 44.0064 36.7555 44.557C38.0472 45.4513 39.7548 44.9818 40.3476 43.2373C40.4696 42.8756 40.4231 42.4392 40.4241 42.0379C40.4266 38.2648 40.4241 39.1014 40.4231 35.3278C40.4211 34.158 40.4231 32.22 40.4211 31.0487C40.4211 25.9238 40.4211 20.7994 40.4211 15.6751C40.4211 15.5944 40.4266 15.5122 40.4186 15.4331C40.3846 15.0744 40.5191 14.917 40.8625 14.9261C41.2954 14.9356 41.3749 14.9817 41.3939 15.4146C41.4079 15.7577 41.3979 16.1004 41.3979 16.4431C41.3979 19.1882 41.4019 21.9317 41.3924 24.6748C41.3914 25.2219 41.5203 25.6968 41.8298 26.1322C42.5696 27.1753 44.0742 26.9779 44.6331 25.9614C44.832 25.5981 44.9585 25.1327 44.961 24.7134C44.9865 21.1827 45.041 17.6486 44.947 14.1214ZM25.7922 20.6792C25.5118 20.4818 25.2428 20.2664 24.9614 20.0735C24.7055 19.8961 24.5945 19.9412 24.559 20.2669C24.5245 20.5855 24.5295 20.9112 24.539 21.2328C24.5485 21.561 24.429 21.7278 24.1151 21.7118C23.9656 21.7053 23.8172 21.7128 23.6677 21.7128C16.6904 21.7128 9.71312 21.7128 2.73583 21.7128C2.62386 21.7128 2.51189 21.7048 2.40041 21.7103C2.10999 21.7263 1.99901 21.557 2.00051 21.2669C2.00151 20.9838 2.00051 20.7017 2.00051 20.4187C2.00101 15.4356 2.00151 10.4525 2.00151 5.46844C2.00151 5.36773 2.00101 5.26703 2.00151 5.16633C2.00551 4.38675 2.00551 4.38425 2.70884 4.38425C9.74162 4.38425 16.7749 4.38425 23.8077 4.38575C23.8832 4.38575 23.9576 4.38324 24.0311 4.38675C24.489 4.40779 24.53 4.44337 24.532 4.96091C24.5385 6.41385 24.5355 7.86579 24.5355 9.31923C24.5355 9.92395 24.5275 10.5302 24.5435 11.1349C24.549 11.3283 24.5765 11.5482 24.668 11.7071C24.7429 11.8378 24.9199 11.9475 25.0644 11.9676C25.1329 11.9771 25.2328 11.7602 25.3123 11.6394C25.6187 11.163 25.9062 10.671 26.2326 10.2115C26.435 9.92545 26.5325 9.64388 26.53 9.27864C26.5125 7.38181 26.522 5.48547 26.5195 3.58914C26.517 2.65325 26.1341 2.2364 25.2563 2.2349C21.2458 2.23089 17.2348 2.2324 13.2238 2.2324C9.25074 2.2324 5.27671 2.24041 1.30318 2.22288C0.70233 2.22037 0.29143 2.44132 0.0974775 3.06007C0.0389918 3.24394 0.0124983 3.44885 0.0124983 3.64475C0.00699961 9.8994 0.0124982 16.154 1.27329e-06 22.4077C-0.000998482 23.326 0.586858 23.8787 1.33767 23.8757C9.21025 23.8556 17.0828 23.8661 24.9554 23.8581C25.2783 23.8571 25.6222 23.7975 25.9207 23.6692C26.1211 23.5816 26.3566 23.3486 26.401 23.1382C26.502 22.6777 26.4915 22.1892 26.5215 21.7113C26.559 21.1361 26.1486 20.9322 25.7922 20.6792ZM35.3049 8.58574C37.3579 8.58424 39.3014 6.734 39.1964 4.24997C39.1864 1.60863 37.3923 0.0309435 35.2429 0.000381659C33.3123 -0.0276751 31.3618 1.4919 31.3278 4.31461C31.2988 6.74552 33.1909 8.58674 35.3049 8.58574Z" fill="#AFAFAF"/>
</svg>
