<svg width="35" height="34" viewBox="0 0 35 34" fill="none" xmlns="http://www.w3.org/2000/svg">
<path d="M25.5 24.2857C25.2671 23.6964 24.9062 23.1662 24.444 22.7346C23.6635 22.0037 22.6413 21.5989 21.5747 21.5989C19.7969 21.5989 15.2031 21.5989 13.4253 21.5989C12.3587 21.5989 11.3382 22.0055 10.556 22.7346C10.0938 23.1662 9.73289 23.6964 9.5 24.2857M14.8333 33C10.0138 32.1832 5.92844 29.2062 3.596 25.0792M5.32222 6.67822C2.94356 9.49221 1.5 13.1337 1.5 17.121C1.5 18.1151 1.60311 19.0841 1.77378 20.0299M20.1667 33C24.9862 32.1832 29.0715 29.2062 31.404 25.0792M25.5889 3.22827C23.2138 1.82037 20.4547 1 17.5 1C14.5453 1 11.7862 1.82037 9.41111 3.22827M29.6778 6.67822C32.0564 9.49221 33.5 13.1337 33.5 17.121C33.5 18.1151 33.3969 19.0841 33.2262 20.0299M17.5 8.16485C19.9551 8.16485 21.9444 10.1692 21.9444 12.6429C21.9444 15.1165 19.9551 17.1209 17.5 17.1209C15.0449 17.1209 13.0556 15.1165 13.0556 12.6429C13.0556 10.1692 15.0449 8.16485 17.5 8.16485Z" stroke="#1A6FEF" stroke-width="1.5" stroke-linecap="round" stroke-linejoin="round"/>
</svg>
