<svg width="35" height="34" viewBox="0 0 35 34" fill="none" xmlns="http://www.w3.org/2000/svg">
<path d="M28.4474 12.7891L26.9653 11.3069M11.6053 14.4733H4.86842C3.00737 14.4733 1.5 12.9659 1.5 11.1048V7.73642C1.5 5.87537 3.00737 4.368 4.86842 4.368H11.6053M31.0343 15.376C27.7451 18.6653 22.4145 18.6653 19.1253 15.376C15.836 12.0867 15.836 6.75621 19.1253 3.46695C22.4145 0.177684 27.7451 0.177684 31.0343 3.46695C34.3219 6.75453 34.3219 12.0867 31.0343 15.376ZM26.9737 6.55242C28.2891 7.86779 28.2891 9.99832 26.9737 11.3137C25.6583 12.6291 23.5278 12.6291 22.2124 11.3137C20.8971 9.99832 20.8971 7.86779 22.2124 6.55242C23.5261 5.23874 25.6583 5.23874 26.9737 6.55242ZM30.1316 32.9996C31.9926 32.9996 33.5 31.4922 33.5 29.6312V26.2627C33.5 24.4017 31.9926 22.8943 30.1316 22.8943H4.86842C3.00737 22.8943 1.5 24.4017 1.5 26.2627V29.6312C1.5 31.4922 3.00737 32.9996 4.86842 32.9996H30.1316Z" stroke="#1A6FEF" stroke-width="1.5" stroke-linecap="round" stroke-linejoin="round"/>
</svg>
