<svg width="35" height="30" viewBox="0 0 35 30" fill="none" xmlns="http://www.w3.org/2000/svg">
<path d="M11.5879 14.8822L8.20281 20.1704M20.0253 9.59407L23.4104 14.8822M24.1514 24.3638H17.4992M12.8257 5.67344C12.8257 3.09336 14.9174 1 17.4992 1C20.0792 1 22.1726 3.09168 22.1726 5.67344C22.1726 8.25351 20.0809 10.3469 17.4992 10.3469C14.9174 10.3435 12.8257 8.25183 12.8257 5.67344ZM1.5 24.3605C1.5 21.7804 3.59168 19.687 6.17344 19.687C8.75351 19.687 10.8469 21.7787 10.8469 24.3605C10.8452 26.9405 8.7552 29.0339 6.17344 29.0339C3.59168 29.0339 1.5 26.9422 1.5 24.3605ZM24.1531 24.3605C24.1531 21.7804 26.2448 19.687 28.8266 19.687C31.4066 19.687 33.5 21.7787 33.5 24.3605C33.5 26.9405 31.4083 29.0339 28.8266 29.0339C26.2431 29.0339 24.1531 26.9422 24.1531 24.3605Z" stroke="#1A6FEF" stroke-width="1.5" stroke-linecap="round" stroke-linejoin="round"/>
</svg>
