<svg width="35" height="27" viewBox="0 0 35 27" fill="none" xmlns="http://www.w3.org/2000/svg">
<path d="M1.5 26C1.5 22.0729 4.684 18.7778 8.61111 18.7778H15.7222C19.6493 18.7778 22.8333 22.0729 22.8333 26M24.6111 2.15733C27.0662 2.15733 29.0556 4.14666 29.0556 6.60177C29.0556 9.05689 27.0662 11.0462 24.6111 11.0462M26.3889 17C30.316 17 33.5 20.184 33.5 24.1111M16.442 2.77089C18.8032 5.13208 18.8032 8.96035 16.442 11.3215C14.0809 13.6827 10.2526 13.6827 7.8914 11.3215C5.5302 8.96035 5.5302 5.13208 7.8914 2.77089C10.2526 0.409702 14.0809 0.409702 16.442 2.77089Z" stroke="white" stroke-width="1.5" stroke-linecap="round" stroke-linejoin="round"/>
</svg>
