<svg width="29" height="26" viewBox="0 0 29 26" fill="none" xmlns="http://www.w3.org/2000/svg">
<path d="M5.365 25C7.7545 22.678 10.987 21.25 14.5345 21.25C18.0475 21.25 21.2455 22.6495 23.6335 24.928M2.4625 20.5375C1.5475 18.7165 1 16.678 1 14.5C1 7.039 7.039 1 14.5 1C21.961 1 28 7.039 28 14.5C28 16.675 27.4555 18.715 26.5345 20.5345M17.6819 9.06802C19.4393 10.8254 19.4393 13.6746 17.6819 15.432C15.9246 17.1893 13.0753 17.1893 11.318 15.432C9.56064 13.6746 9.56064 10.8254 11.318 9.06802C13.0753 7.31067 15.9246 7.31067 17.6819 9.06802Z" stroke="#666666" stroke-width="1.5" stroke-linecap="round" stroke-linejoin="round"/>
</svg>
